<?xml version="1.0" encoding="UTF-8"?> <svg xmlns="http://www.w3.org/2000/svg" width="76" height="76" viewBox="0 0 76 76" fill="none"><circle cx="38" cy="38" r="37" fill="white" stroke="#61BB46" stroke-width="2"></circle><path d="M51.1725 38.7918C51.7841 37.9836 52.1227 36.9935 52.1227 35.9632C52.1227 34.3287 51.2089 32.7816 49.7382 31.9188C49.3596 31.6968 48.9285 31.5799 48.4896 31.5803H39.7601L39.9785 27.1063C40.0295 26.0251 39.6472 24.9986 38.9046 24.2159C38.5402 23.8301 38.1005 23.5232 37.6127 23.3141C37.125 23.1049 36.5995 22.9981 36.0688 23C34.1758 23 32.5013 24.2741 31.9989 26.0979L28.8719 37.4194H28.8609V53H46.0542C46.3891 53 46.7168 52.9345 47.0189 52.8034C48.7517 52.0644 49.8693 50.3717 49.8693 48.4933C49.8693 48.0346 49.8038 47.5832 49.6727 47.1463C50.2843 46.3382 50.6228 45.348 50.6228 44.3178C50.6228 43.8591 50.5573 43.4077 50.4263 42.9709C51.0378 42.1627 51.3764 41.1726 51.3764 40.1423C51.3691 39.6837 51.3036 39.2286 51.1725 38.7918ZM23 38.5843V51.8351C23 52.4794 23.5206 53 24.1649 53H26.5311V37.4194H24.1649C23.5206 37.4194 23 37.9399 23 38.5843Z" fill="#61BB46"></path></svg> 